<?xml version="1.0" encoding="utf-8"?>
<!-- Generator: Adobe Illustrator 26.0.2, SVG Export Plug-In . SVG Version: 6.00 Build 0)  -->
<svg version="1.1" id="Capa_1" xmlns="http://www.w3.org/2000/svg" xmlns:xlink="http://www.w3.org/1999/xlink" x="0px" y="0px"
	 viewBox="0 0 612.1 612.1" style="enable-background:new 0 0 612.1 612.1;" xml:space="preserve">
<style type="text/css">
	.st0{fill:#FFFFFF;}
</style>
<g>
	<path class="st0" d="M306,0C137,0,0,137,0,306.1s137,306,306,306s306-137,306-306S475.1,0,306,0z M306,582.4
		c-152.2,0-276.4-124.2-276.4-276.4S153.8,29.7,306,29.7s276.4,124.2,276.4,276.4S459.1,582.4,306,582.4z M425.4,285.2
		c-0.8,0-0.8-0.8-1.6-0.8l-169.9-97.8c-5.6-3.2-10.4-4.8-16-4.8c-11.2,0-23.2,8.8-23.2,28v192.3c0.8,19.2,12,28,24,28
		c5.6,0,11.2-1.6,16.8-4.8l162.6-93.8c12-6.4,17.7-15.2,18.4-24.8C437.4,302.9,435.8,293.2,425.4,285.2z M244.3,398.2V215.5
		l157.8,91.3L244.3,398.2z"/>
</g>
</svg>
