<?xml version="1.0" encoding="UTF-8" standalone="no"?>
<svg width="28px" height="23px" viewBox="0 0 28 23" version="1.1" xmlns="http://www.w3.org/2000/svg" xmlns:xlink="http://www.w3.org/1999/xlink" xmlns:sketch="http://www.bohemiancoding.com/sketch/ns">
    <!-- Generator: Sketch 3.5.1 (25234) - http://www.bohemiancoding.com/sketch -->
    <title>path78</title>
    <desc>Created with Sketch.</desc>
    <defs></defs>
    <g id="Page-1" stroke="none" stroke-width="1" fill="none" fill-rule="evenodd" sketch:type="MSPage">
        <g id="Иконки" sketch:type="MSLayerGroup" transform="translate(-80.000000, -44.000000)" fill="#FFFFFF">
            <g id="svg2" sketch:type="MSShapeGroup">
                <g id="g10" transform="translate(67.000000, 67.333330) scale(1, -1) translate(-67.000000, -67.333330) translate(0.000000, 0.333330)">
                    <g id="g12">
                        <g id="g14-Clipped">
                            <g id="g14">
                                <g id="g76" transform="translate(80.000000, 67.000000)">
                                    <path d="M7.9999998,21.3333328 C6.65199983,21.3333328 5.3853332,20.8013328 4.43066656,19.8333328 C2.45199994,17.8266662 2.45199994,14.5599996 4.43066656,12.5546664 L14.0546663,2.7946666 L23.6799994,12.5546664 C25.658666,14.5599996 25.658666,17.8266662 23.6799994,19.8333328 C21.7706661,21.7693328 18.4506662,21.7693328 16.5413329,19.8333328 L14.7666663,18.0333329 C14.5786663,17.8439996 14.321333,17.7359996 14.0546663,17.7359996 C13.7866663,17.7359996 13.529333,17.8439996 13.3426663,18.0346662 L11.569333,19.8333328 C10.6146664,20.8013328 9.34799977,21.3333328 7.9999998,21.3333328 M14.0546663,0.369333324 C13.7866663,0.369333324 13.529333,0.477333321 13.3426663,0.667999983 L3.00666659,11.1493331 C0.263999993,13.9306663 0.263999993,18.4559995 3.00666659,21.2373328 C4.33999989,22.5893328 6.11333318,23.3333328 7.9999998,23.3333328 C9.88666642,23.3333328 11.6599997,22.5893328 12.993333,21.2373328 L14.0546663,20.1599995 L15.117333,21.2373328 C16.4506663,22.5893328 18.2239995,23.3333328 20.1106662,23.3333328 C21.9973328,23.3333328 23.7706661,22.5893328 25.1039994,21.2373328 C27.846666,18.4559995 27.846666,13.9306663 25.1039994,11.1493331 L14.7666663,0.66666665 C14.5786663,0.477333321 14.3226663,0.369333324 14.0546663,0.369333324" id="path78"></path>
                                </g>
                            </g>
                        </g>
                    </g>
                </g>
            </g>
        </g>
    </g>
</svg>
