<?xml version="1.0" encoding="utf-8"?>
<!-- Generator: Adobe Illustrator 19.0.1, SVG Export Plug-In . SVG Version: 6.00 Build 0)  -->
<svg version="1.1" id="Слой_1" xmlns:sketch="http://www.bohemiancoding.com/sketch/ns"
	 xmlns="http://www.w3.org/2000/svg" xmlns:xlink="http://www.w3.org/1999/xlink" x="0px" y="0px" viewBox="-283 409.9 28 23"
	 style="enable-background:new -283 409.9 28 23;" xml:space="preserve">
<style type="text/css">
	.st0{fill:#FFFFFF;}
</style>
<g id="Page-1" sketch:type="MSPage">
	<g id="Иконки" transform="translate(-80.000000, -44.000000)" sketch:type="MSLayerGroup">
		<g id="svg2" sketch:type="MSShapeGroup">
			
				<g id="g10" transform="translate(67.000000, 67.333330) scale(1, -1) translate(-67.000000, -67.333330) translate(0.000000, 0.333330)">
				<g id="g12">
					<g id="g14-Clipped">
						<g id="g14">
							<g id="g76" transform="translate(80.000000, 67.000000)">
								<path id="path78" class="st0" d="M-269-409.5c-0.3,0-0.5,0.1-0.7,0.3l-10.3,10.5c-2.7,2.8-2.7,7.3,0,10.1
									c1.3,1.4,3.1,2.1,5,2.1s3.7-0.7,5-2.1l1.1-1.1l1.1,1.1c1.3,1.4,3.1,2.1,5,2.1c1.9,0,3.7-0.7,5-2.1c2.7-2.8,2.7-7.3,0-10.1
									l-10.3-10.5C-268.5-409.4-268.7-409.5-269-409.5"/>
							</g>
						</g>
					</g>
				</g>
			</g>
		</g>
	</g>
</g>
</svg>
