<?xml version="1.0" encoding="utf-8"?>
<!-- Generator: Adobe Illustrator 26.0.2, SVG Export Plug-In . SVG Version: 6.00 Build 0)  -->
<svg version="1.1" id="Слой_1" xmlns="http://www.w3.org/2000/svg" xmlns:xlink="http://www.w3.org/1999/xlink" x="0px" y="0px"
	 viewBox="0 0 512 512" style="enable-background:new 0 0 512 512;" xml:space="preserve">
<style type="text/css">
	.st0{fill:#BCBCBC;}
</style>
<g id="Moon">
	<path class="st0" d="M399.1,271c-2.5-1.5-5.6-1.3-7.8,0.5c-18.8,14.6-41.9,22.6-65.8,22.5c-59.3-0.1-107.4-48.1-107.4-107.4
		c-0.1-23.8,7.8-47,22.5-65.8c2.4-3.1,1.8-7.5-1.2-9.8c-1.5-1.2-3.5-1.7-5.4-1.4c-71.7,11.3-124.5,73.1-124.5,145.6
		c0,81.3,66.1,147.4,147.4,147.4c72.6,0,134.3-52.8,145.6-124.5C402.9,275.2,401.6,272.4,399.1,271z"/>
</g>
</svg>
