<?xml version="1.0" encoding="UTF-8" standalone="no"?>
<svg width="29px" height="29px" viewBox="0 0 29 29" version="1.1" xmlns="http://www.w3.org/2000/svg" xmlns:xlink="http://www.w3.org/1999/xlink" xmlns:sketch="http://www.bohemiancoding.com/sketch/ns">
    <!-- Generator: Sketch 3.5.1 (25234) - http://www.bohemiancoding.com/sketch -->
    <title>Group</title>
    <desc>Created with Sketch.</desc>
    <defs></defs>
    <g id="Page-1" stroke="none" stroke-width="1" fill="none" fill-rule="evenodd" sketch:type="MSPage">
        <g id="Group" sketch:type="MSLayerGroup" fill="#FFFFFF">
            <path d="M26.0947664,7 C26.8578438,7 29,7 29,7 L29,29 L-7.10542736e-15,29 L-3.55271368e-15,1 L-3.55271368e-15,0 L24,0 L24,24 L21,24 L21,3 L3,3 L3,26 L26,26 L26,7 C25.7172114,7 25.8098788,7 26.0947664,7 Z" id="Path-3" sketch:type="MSShapeGroup"></path>
            <path d="M5,7 L19,7 L19,10 L5,10 L5,7 Z" id="Path-2" sketch:type="MSShapeGroup"></path>
            <path d="M5,14 L19,14 L19,17 L5,17 L5,14 Z" id="Path-2" sketch:type="MSShapeGroup"></path>
            <path d="M5,21 L19,21 L19,24 L5,24 L5,21 Z" id="Path-2" sketch:type="MSShapeGroup"></path>
        </g>
    </g>
</svg>