<svg width="36" height="36" fill="none" xmlns="http://www.w3.org/2000/svg"><path fill-rule="evenodd" clip-rule="evenodd" d="M28.64 8.667a4.875 4.875 0 0 1-7.881-4.547L18 4.085l-2.758.033A4.875 4.875 0 0 1 7.36 8.666l-1.41 2.377-1.313 2.338a4.877 4.877 0 0 1 0 9.238l1.312 2.338 1.41 2.377a4.875 4.875 0 0 1 7.881 4.547l2.759.033 2.758-.033a4.875 4.875 0 0 1 7.881-4.548l1.41-2.376 1.338-2.382a4.877 4.877 0 0 1 0-9.15l-1.337-2.382-1.41-2.376ZM18 23.25a5.25 5.25 0 1 0 0-10.5 5.25 5.25 0 0 0 0 10.5Z" fill="#fff"/></svg>
