<svg width="36" height="36" fill="none" xmlns="http://www.w3.org/2000/svg"><path fill-rule="evenodd" clip-rule="evenodd" d="M11.578 5.276a14.315 14.315 0 0 0-5.374 4.726l3.112 1.831a10.7 10.7 0 0 1 3.804-3.302l-1.542-3.255ZM3.75 18c0-1.283.17-2.527.488-3.71l3.4 1.238A10.68 10.68 0 0 0 7.35 18c0 .803.089 1.586.258 2.339l-3.405 1.238A14.275 14.275 0 0 1 3.75 18Zm2.384 7.894 3.11-1.83a10.7 10.7 0 0 0 3.821 3.376l-1.542 3.256a14.316 14.316 0 0 1-5.389-4.802Zm10.179 6.257c.553.065 1.116.099 1.687.099 7.87 0 14.25-6.38 14.25-14.25S25.87 3.75 18 3.75c-.562 0-1.116.032-1.66.096l.676 3.549c.324-.03.652-.045.984-.045 5.882 0 10.65 4.768 10.65 10.65 0 5.882-4.768 10.65-10.65 10.65-.341 0-.678-.016-1.011-.047l-.676 3.548ZM14.25 24 24 18l-9.75-6v12Z" fill="#fff"/></svg>